<svg xmlns="http://www.w3.org/2000/svg" viewBox="0 0 951 725" width="951" height="725">
  <path fill="#fefefe" d="M174.32,610.65C174.10,610.43 172.42,610.10 170.59,609.91C162.90,609.10 154.80,606.94 149.58,604.29C148.18,603.58 146.73,603.00 146.36,603.00C145.66,603.00 138.39,598.54 133.55,595.14C129.78,592.50 116.21,578.92 112.88,574.46C106.27,565.60 97.02,548.09 93.07,537.00C91.38,532.24 91.09,531.34 90.00,527.50C89.41,525.44 88.72,523.06 88.46,522.21C88.21,521.37 88.00,520.13 87.99,519.46C87.99,518.80 87.61,517.24 87.16,516.00C86.71,514.76 86.15,512.46 85.92,510.88C85.08,505.14 84.56,502.21 83.99,500.00C83.67,498.76 83.22,496.29 82.98,494.50C82.75,492.71 82.32,490.07 82.03,488.62C80.74,482.23 80.43,480.59 80.00,478.00C79.75,476.49 79.30,474.01 79.00,472.50C78.47,469.82 77.98,467.00 77.04,461.12C76.78,459.54 76.32,457.24 76.00,456.00C75.68,454.76 75.22,452.46 74.96,450.88C74.71,449.29 74.29,446.71 74.04,445.12C73.78,443.54 73.31,441.24 72.99,440.00C72.67,438.76 72.22,436.29 71.98,434.50C71.59,431.47 71.26,429.64 69.96,423.25C69.68,421.88 69.25,419.51 69.00,418.00C68.57,415.41 68.26,413.77 66.97,407.38C66.68,405.93 66.25,403.29 66.02,401.50C65.78,399.71 65.33,397.24 65.01,396.00C64.69,394.76 64.22,392.46 63.96,390.88C63.71,389.29 63.29,386.71 63.04,385.12C62.78,383.54 62.31,381.24 61.99,380.00C61.67,378.76 61.22,376.29 60.97,374.50C60.24,369.06 59.60,365.36 59.00,363.00C58.68,361.76 58.22,359.46 57.96,357.88C57.71,356.29 57.29,353.71 57.04,352.12C56.78,350.54 56.31,348.24 55.99,347.00C55.67,345.76 55.22,343.29 54.98,341.50C54.75,339.71 54.33,337.12 54.04,335.75C53.09,331.09 52.46,327.76 52.00,325.00C51.75,323.49 51.30,321.01 51.00,319.50C50.47,316.82 49.98,314.00 49.04,308.12C48.78,306.54 48.32,304.24 48.00,303.00C47.68,301.76 47.22,299.46 46.96,297.88C46.71,296.29 46.29,293.71 46.04,292.12C45.78,290.54 45.31,288.24 44.99,287.00C44.67,285.76 44.22,283.29 43.98,281.50C43.59,278.47 43.26,276.64 41.96,270.25C41.68,268.88 41.25,266.51 41.00,265.00C40.57,262.41 40.26,260.77 38.97,254.38C38.68,252.93 38.25,250.29 38.02,248.50C37.78,246.71 37.33,244.24 37.01,243.00C36.69,241.76 36.22,239.46 35.96,237.87C35.02,232.00 34.53,229.18 34.00,226.50C33.70,224.99 33.25,222.51 33.00,221.00C32.35,217.08 31.65,213.60 30.99,211.00C30.67,209.76 30.22,207.29 29.97,205.50C28.90,197.57 28.16,193.86 26.97,190.50C26.63,189.54 26.15,186.95 25.89,184.75C24.84,175.73 25.52,168.36 28.22,159.50C28.69,157.99 29.27,156.06 29.53,155.21C29.79,154.37 30.00,153.31 30.00,152.85C30.00,152.04 30.69,150.35 33.56,144.12C34.35,142.39 35.00,140.69 35.00,140.33C35.00,139.21 43.04,126.86 45.63,123.99C46.25,123.31 47.76,121.52 49.00,120.01C51.84,116.55 54.52,113.86 58.00,111.00C59.50,109.76 61.41,108.10 62.24,107.32C65.27,104.44 73.55,99.29 80.75,95.81C88.12,92.25 91.05,91.00 92.03,91.00C92.59,91.00 93.77,90.62 94.65,90.16C95.53,89.69 97.32,89.13 98.62,88.91C99.93,88.68 102.18,88.26 103.62,87.98C110.71,86.57 112.92,86.37 121.50,86.38C126.59,86.39 132.66,86.65 135.00,86.96C140.96,87.75 147.36,88.45 153.50,88.98C156.39,89.23 160.21,89.69 162.00,90.00C163.79,90.31 167.61,90.77 170.50,91.02C177.32,91.61 183.82,92.33 188.50,93.01C190.56,93.31 194.84,93.76 198.00,94.01C201.16,94.26 205.61,94.69 207.88,94.98C218.19,96.28 220.55,96.56 225.00,97.00C227.61,97.26 231.66,97.71 234.00,98.00C240.79,98.84 246.86,99.49 252.50,99.99C255.39,100.24 259.44,100.70 261.50,101.00C263.56,101.30 267.39,101.75 270.00,102.01C277.93,102.80 283.56,103.44 287.50,104.01C289.56,104.30 293.61,104.76 296.50,105.02C306.35,105.89 311.75,106.46 315.50,107.00C317.56,107.30 321.39,107.75 324.00,108.01C332.01,108.80 337.58,109.44 341.50,110.01C343.56,110.31 348.06,110.76 351.50,111.00C354.94,111.24 359.44,111.69 361.50,111.99C365.42,112.56 370.99,113.20 379.00,113.99C381.61,114.25 385.44,114.70 387.50,115.00C389.56,115.30 393.44,115.76 396.12,116.02C398.81,116.28 403.19,116.72 405.88,116.98C408.56,117.24 412.44,117.70 414.50,118.00C416.56,118.30 420.39,118.75 423.00,119.01C429.10,119.61 435.64,120.34 441.00,121.01C443.34,121.30 447.61,121.74 450.50,122.00C453.39,122.26 457.61,122.70 459.88,122.98C462.14,123.27 465.86,123.73 468.12,124.02C470.39,124.30 474.61,124.74 477.50,125.00C480.39,125.26 484.61,125.70 486.88,125.98C489.14,126.27 492.86,126.73 495.13,127.02C504.23,128.16 505.66,128.16 506.96,127.04C508.51,125.69 508.74,125.72 510.28,127.45C511.89,129.26 514.24,129.69 529.00,130.91C531.61,131.13 534.10,131.47 534.52,131.67C534.95,131.87 537.42,132.14 540.02,132.27C546.48,132.61 556.80,133.62 568.00,135.00C570.34,135.29 574.39,135.74 577.00,136.01C585.24,136.83 590.63,137.45 594.50,138.01C596.56,138.30 600.61,138.75 603.50,139.01C606.39,139.26 610.66,139.70 613.00,139.99C619.68,140.83 625.81,141.49 631.50,141.99C634.39,142.24 638.44,142.70 640.50,142.99C645.03,143.65 651.43,144.36 658.50,145.00C667.95,145.85 669.74,146.09 670.38,146.61C671.32,147.39 671.12,150.80 670.00,153.00C669.45,154.08 669.00,155.56 669.00,156.29C669.00,157.02 668.57,159.00 668.03,160.68C667.50,162.37 666.81,164.76 666.50,166.00C665.91,168.28 664.31,173.97 663.46,176.79C663.21,177.63 663.00,178.71 663.00,179.18C663.00,179.65 662.55,180.92 662.00,182.00C661.45,183.08 661.00,184.65 661.00,185.50C661.00,186.35 660.59,187.87 660.09,188.89C659.59,189.92 658.90,191.76 658.55,193.00C657.08,198.27 651.74,214.40 650.91,216.11C650.41,217.13 650.00,218.43 650.00,218.99C650.00,219.56 649.33,221.37 648.50,223.00C647.67,224.63 647.00,226.44 647.00,227.01C647.00,227.58 646.65,228.73 646.22,229.57C645.79,230.40 645.02,232.36 644.52,233.92C644.02,235.47 643.27,237.54 642.86,238.50C642.05,240.40 640.43,244.38 638.94,248.12C636.27,254.85 635.44,256.86 631.61,265.75C630.21,269.02 629.70,270.26 626.95,277.12C625.67,280.31 622.87,286.62 619.00,295.00C617.41,298.44 615.17,303.39 614.01,306.00C611.10,312.54 585.32,364.15 580.66,372.75C578.57,376.60 575.36,382.56 573.52,386.00C571.68,389.44 569.23,393.88 568.08,395.88C566.94,397.87 565.10,401.07 564.00,403.00C562.90,404.93 561.07,408.13 559.92,410.12C558.78,412.12 556.80,415.66 555.52,418.00C554.25,420.34 551.55,424.95 549.52,428.25C547.50,431.55 542.77,439.31 539.01,445.50C535.25,451.69 530.97,458.66 529.50,461.00C528.03,463.34 526.11,466.44 525.22,467.89C524.33,469.34 523.06,471.25 522.40,472.14C521.74,473.02 520.59,474.76 519.85,476.00C516.81,481.08 509.80,491.69 503.00,501.50C500.81,504.66 497.83,509.00 496.38,511.13C493.19,515.84 483.58,529.21 480.66,533.00C479.50,534.51 474.78,540.81 470.19,547.00C463.02,556.65 452.47,570.20 451.50,571.00C451.34,571.14 449.30,573.61 446.98,576.50C444.66,579.39 442.08,582.44 441.24,583.28C440.40,584.13 439.20,585.47 438.57,586.27C437.25,587.95 435.62,588.25 424.00,589.01C420.29,589.25 415.34,589.70 413.00,590.00C408.86,590.53 403.27,591.02 390.50,591.98C387.06,592.24 382.34,592.70 380.00,593.00C375.81,593.53 369.76,594.07 357.50,594.98C354.06,595.23 349.56,595.69 347.50,596.00C345.44,596.31 340.49,596.77 336.50,597.02C327.26,597.59 314.23,598.89 306.50,600.01C304.44,600.31 301.91,600.53 300.88,600.50C293.52,600.29 285.71,600.48 282.75,600.93C280.82,601.23 278.24,601.62 277.00,601.80C275.76,601.97 274.11,602.57 273.33,603.13C272.07,604.02 271.70,604.06 270.04,603.51C268.88,603.13 267.12,603.01 265.45,603.21C255.73,604.35 249.65,604.94 237.00,605.99C233.84,606.25 229.11,606.71 226.50,607.00C223.89,607.30 218.94,607.75 215.50,608.01C208.47,608.54 200.77,609.23 193.00,610.02C185.68,610.76 174.80,611.13 174.32,610.65Z M191.50,591.00C193.56,590.69 198.96,590.23 203.50,590.00C208.04,589.77 213.44,589.32 215.50,589.01C220.04,588.33 227.77,587.63 237.50,587.01C241.49,586.76 246.66,586.31 249.00,586.01C254.84,585.27 262.07,584.56 269.50,584.01C272.94,583.75 277.66,583.30 280.00,583.00C284.14,582.47 289.76,581.98 302.50,581.02C305.94,580.76 310.66,580.30 313.00,580.00C315.34,579.70 320.29,579.25 324.00,578.99C327.71,578.74 332.89,578.30 335.50,578.01C344.49,577.01 350.27,576.47 357.00,576.00C364.61,575.47 371.73,574.79 378.00,573.99C380.34,573.69 385.74,573.25 390.00,573.01C394.26,572.78 399.21,572.33 401.00,572.01C404.20,571.43 412.39,570.74 422.28,570.21C427.32,569.94 427.32,569.94 430.05,567.34C431.56,565.92 434.69,562.39 437.01,559.50C439.32,556.61 441.52,553.94 441.90,553.55C442.27,553.17 444.23,550.66 446.27,547.98C448.30,545.30 453.18,538.94 457.11,533.86C465.02,523.63 471.38,515.00 472.45,513.04C472.84,512.33 474.13,510.55 475.33,509.08C476.52,507.61 477.50,506.22 477.50,506.00C477.50,505.77 478.40,504.45 479.50,503.06C482.48,499.29 482.02,498.44 478.25,500.76C477.15,501.44 475.73,502.00 475.10,502.00C474.47,502.00 473.23,502.38 472.35,502.83C470.77,503.66 468.91,504.17 464.50,504.98C463.26,505.20 461.46,505.67 460.50,506.02C457.36,507.15 450.01,507.60 434.50,507.60C418.05,507.60 411.53,507.17 408.00,505.85C406.76,505.39 405.19,505.01 404.50,505.00C403.12,504.98 399.66,503.87 397.46,502.73C396.69,502.33 395.59,502.00 395.03,502.00C394.48,502.00 392.61,501.34 390.88,500.54C389.16,499.73 386.99,498.79 386.06,498.45C384.42,497.84 375.05,491.99 369.56,488.14C366.54,486.02 355.46,475.21 352.00,471.02C350.76,469.52 349.03,467.49 348.16,466.52C345.98,464.10 341.18,457.31 339.97,454.94C339.43,453.87 337.86,451.28 336.49,449.19C335.02,446.93 334.00,444.80 334.00,443.98C334.00,442.29 337.22,439.24 342.93,435.50C345.03,434.12 348.32,431.90 350.25,430.56C352.18,429.22 354.31,427.85 355.00,427.50C355.69,427.15 357.82,425.77 359.75,424.43C367.90,418.75 381.66,410.00 382.43,410.00C383.53,410.00 385.56,411.93 387.57,414.87C399.01,431.67 413.34,444.48 424.00,447.44C425.24,447.79 427.63,448.50 429.32,449.03C431.42,449.70 433.83,450.00 437.00,450.00C440.17,450.00 442.58,449.70 444.68,449.03C446.37,448.50 448.76,447.79 450.00,447.45C455.98,445.82 467.77,436.35 470.50,430.99C473.85,424.43 474.73,418.24 473.00,413.50C472.45,412.00 472.00,410.36 472.00,409.87C472.00,408.39 469.04,402.96 466.38,399.56C463.49,395.88 454.99,387.28 450.99,384.01C449.48,382.78 447.91,381.42 447.50,381.00C447.09,380.58 445.51,379.22 444.00,377.99C442.49,376.76 440.93,375.45 440.53,375.07C440.14,374.70 436.65,372.01 432.78,369.10C428.92,366.19 423.61,362.10 421.00,360.00C418.39,357.91 413.98,354.48 411.20,352.38C408.42,350.29 405.83,348.26 405.45,347.88C405.06,347.50 402.61,345.54 400.00,343.51C397.39,341.48 394.91,339.46 394.50,339.03C394.09,338.59 392.51,337.22 391.00,335.99C389.49,334.76 387.01,332.51 385.50,331.00C383.99,329.49 381.52,327.24 380.01,326.00C376.49,323.11 368.90,315.52 366.00,311.99C364.76,310.49 363.27,308.76 362.68,308.15C354.96,300.26 344.33,279.68 342.96,270.00C342.75,268.49 342.29,266.24 341.94,265.00C341.12,262.06 341.11,243.31 341.94,239.50C342.26,237.99 342.74,235.74 342.98,234.50C343.88,230.04 344.37,228.22 345.12,226.50C345.54,225.54 346.38,223.51 346.99,222.00C349.73,215.11 353.69,208.78 359.45,202.04C360.66,200.62 362.23,198.72 362.94,197.81C363.65,196.91 365.13,195.46 366.24,194.60C367.34,193.74 369.04,192.35 370.00,191.50C373.27,188.64 382.74,182.11 385.25,181.00C386.63,180.39 389.61,179.01 391.88,177.94C394.16,176.87 396.37,176.00 396.79,176.00C397.22,176.00 399.30,175.40 401.41,174.66C403.52,173.93 406.71,173.15 408.50,172.94C410.29,172.73 412.99,172.28 414.50,171.95C416.25,171.56 421.72,171.34 429.50,171.34C437.28,171.34 442.75,171.56 444.50,171.95C446.01,172.28 448.71,172.73 450.50,172.94C452.29,173.15 455.48,173.93 457.59,174.66C459.70,175.40 461.77,176.00 462.20,176.00C462.96,176.00 464.71,176.71 470.88,179.56C472.61,180.35 474.28,181.00 474.60,181.00C475.26,181.00 480.72,184.18 485.23,187.19C487.87,188.95 499.36,197.73 500.00,198.47C500.14,198.63 501.49,199.77 503.00,201.01C504.51,202.24 508.73,206.26 512.38,209.94C519.00,216.62 519.00,216.62 519.00,218.99C519.00,221.34 518.95,221.41 513.38,227.06C510.28,230.19 506.52,233.77 505.02,235.00C503.52,236.24 497.15,242.37 490.86,248.62C480.10,259.33 479.33,260.00 477.59,260.00C475.54,260.00 472.31,257.31 468.00,252.00C460.98,243.35 445.90,233.14 436.75,230.86C433.09,229.94 423.81,229.86 421.28,230.71C412.93,233.55 405.96,239.12 402.72,245.57C400.26,250.44 400.45,254.03 403.48,259.95C405.05,263.05 410.20,269.66 412.22,271.20C413.27,271.99 415.28,273.79 416.69,275.20C418.11,276.60 420.50,278.76 422.01,279.99C423.52,281.23 424.86,282.35 425.00,282.50C425.14,282.65 426.49,283.77 428.00,285.00C429.51,286.23 431.09,287.59 431.50,288.03C431.91,288.46 434.39,290.48 437.00,292.51C439.61,294.54 442.07,296.51 442.46,296.89C442.85,297.28 445.77,299.57 448.96,301.99C452.14,304.40 455.31,306.88 456.00,307.50C456.69,308.12 459.84,310.59 463.00,313.00C466.16,315.41 469.31,317.88 470.00,318.50C470.69,319.12 473.88,321.62 477.10,324.05C480.31,326.49 483.46,329.01 484.10,329.64C484.73,330.28 487.37,332.44 489.95,334.46C500.43,342.64 514.27,357.86 520.60,368.15C526.54,377.83 531.31,389.82 532.07,397.00C532.29,399.06 532.72,402.44 533.02,404.50C533.32,406.56 533.68,410.11 533.82,412.38C533.96,414.64 534.24,416.50 534.45,416.50C535.19,416.50 536.92,414.20 538.39,411.25C539.22,409.60 541.06,406.34 542.50,404.00C543.93,401.66 545.67,398.62 546.36,397.25C547.64,394.71 548.32,393.53 554.11,383.75C555.91,380.73 558.54,376.00 559.96,373.25C561.39,370.50 564.33,364.99 566.50,361.00C573.96,347.31 597.47,299.66 604.00,285.00C605.16,282.39 607.42,277.44 609.00,274.00C610.59,270.56 612.62,266.06 613.50,264.00C614.39,261.94 615.68,259.01 616.37,257.50C617.05,255.99 618.02,253.48 618.52,251.93C619.02,250.38 619.91,248.16 620.50,247.00C621.09,245.84 621.99,243.59 622.50,242.00C623.01,240.41 623.88,238.21 624.45,237.10C625.01,236.00 626.02,233.55 626.68,231.67C627.34,229.79 628.39,227.01 629.00,225.50C629.61,223.99 630.66,221.20 631.32,219.32C631.99,217.43 632.86,215.25 633.27,214.47C633.67,213.69 634.00,212.58 634.00,212.01C634.00,211.44 634.67,209.63 635.50,208.00C636.32,206.37 637.00,204.63 637.00,204.13C637.00,203.64 637.43,202.11 637.95,200.74C638.48,199.37 639.15,197.52 639.45,196.62C639.75,195.73 640.25,194.27 640.55,193.38C640.85,192.48 641.52,190.63 642.05,189.26C642.57,187.89 643.00,186.13 643.00,185.36C643.00,184.59 643.45,183.08 644.00,182.00C644.55,180.92 645.00,179.64 645.01,179.14C645.02,178.08 646.25,174.44 647.27,172.46C647.67,171.69 648.00,170.44 648.00,169.69C648.00,168.93 648.27,167.58 648.59,166.68C649.43,164.37 648.28,163.18 644.84,162.81C643.41,162.66 640.56,162.29 638.50,162.00C633.21,161.24 626.70,160.54 620.00,160.01C616.84,159.76 612.56,159.31 610.50,159.01C606.48,158.43 600.64,157.76 593.00,157.02C590.39,156.77 586.79,156.30 585.00,155.99C583.21,155.68 578.94,155.22 575.50,154.98C567.81,154.43 561.28,153.73 557.00,152.99C555.21,152.68 551.16,152.23 548.00,151.99C542.63,151.58 540.10,151.28 531.25,149.96C529.33,149.68 524.94,149.24 521.50,148.99C518.06,148.75 513.39,148.31 511.12,148.02C500.30,146.65 498.40,146.43 493.50,146.01C490.61,145.77 486.79,145.31 485.00,145.00C483.21,144.69 479.50,144.23 476.75,143.97C466.07,142.95 462.11,142.52 458.50,142.00C456.44,141.70 452.39,141.24 449.50,140.99C442.59,140.38 436.12,139.66 431.50,138.99C429.44,138.70 425.39,138.24 422.50,137.99C415.52,137.37 409.08,136.66 404.50,135.99C402.44,135.69 397.94,135.24 394.50,135.00C391.06,134.76 386.56,134.31 384.50,134.02C379.02,133.22 373.39,132.53 368.00,132.00C365.39,131.74 361.34,131.29 359.00,131.00C355.01,130.50 352.03,130.19 340.12,129.02C337.44,128.76 333.56,128.30 331.50,128.00C329.44,127.70 325.39,127.25 322.50,126.99C317.07,126.52 311.98,125.92 305.50,124.99C303.44,124.69 299.39,124.24 296.50,123.99C289.55,123.38 283.10,122.66 278.50,121.99C276.44,121.69 272.16,121.25 269.00,121.00C265.84,120.75 261.56,120.31 259.50,120.01C252.00,118.93 247.63,118.45 241.50,118.01C238.06,117.77 233.79,117.32 232.00,117.01C230.21,116.69 226.39,116.23 223.50,115.98C215.59,115.29 209.62,114.62 206.00,113.99C204.21,113.68 200.16,113.23 197.00,112.98C187.58,112.23 181.45,111.59 178.00,111.00C176.21,110.69 172.39,110.23 169.50,109.99C164.07,109.52 158.98,108.92 152.50,107.99C150.44,107.69 146.16,107.24 143.00,106.99C139.84,106.74 135.34,106.29 133.00,105.97C127.50,105.24 116.12,105.22 112.12,105.94C110.41,106.25 107.71,106.68 106.12,106.90C104.54,107.11 102.74,107.58 102.11,107.92C101.48,108.27 99.67,108.97 98.08,109.47C85.01,113.65 68.16,126.31 59.35,138.57C55.46,143.99 48.00,158.28 47.99,160.34C47.99,161.12 47.61,162.76 47.16,164.00C44.92,170.07 44.84,182.74 47.00,191.00C47.32,192.24 47.78,194.71 48.02,196.50C48.25,198.29 48.68,200.93 48.97,202.38C49.26,203.82 49.74,206.18 50.03,207.62C50.32,209.07 50.75,211.71 50.98,213.50C51.22,215.29 51.67,217.76 51.99,219.00C52.83,222.29 53.50,225.82 53.98,229.50C54.22,231.29 54.67,233.76 54.99,235.00C55.63,237.44 56.30,241.39 56.95,246.50C57.18,248.29 57.65,250.54 58.00,251.50C58.35,252.46 58.82,254.71 59.04,256.50C59.42,259.54 59.78,261.60 61.04,267.75C61.33,269.12 61.76,271.71 62.00,273.50C62.51,277.26 63.19,280.80 64.02,284.00C64.34,285.24 64.77,287.94 64.98,290.00C65.18,292.06 65.64,294.54 65.99,295.50C66.60,297.19 67.06,299.70 67.97,306.50C68.22,308.29 68.67,310.76 68.99,312.00C69.83,315.29 70.50,318.82 70.98,322.50C71.22,324.29 71.67,326.76 71.99,328.00C72.31,329.24 72.78,331.54 73.04,333.12C73.29,334.71 73.71,337.29 73.96,338.88C74.22,340.46 74.69,342.76 75.01,344.00C75.33,345.24 75.78,347.71 76.02,349.50C76.50,353.21 77.18,356.74 78.02,360.00C78.34,361.24 78.79,363.94 79.02,366.00C79.46,369.95 80.06,373.27 81.01,377.00C81.33,378.24 81.77,380.71 82.00,382.50C82.23,384.29 82.67,386.76 82.99,388.00C83.60,390.35 84.23,394.02 84.97,399.50C85.22,401.29 85.67,403.76 85.99,405.00C86.67,407.69 87.39,411.25 87.98,415.00C88.23,416.51 88.69,418.76 89.01,420.00C89.33,421.24 89.79,423.94 90.02,426.00C90.46,429.97 91.07,433.31 92.02,437.00C92.34,438.24 92.77,440.94 92.98,443.00C93.18,445.06 93.64,447.54 93.99,448.50C94.60,450.19 95.06,452.70 95.97,459.50C96.22,461.29 96.67,463.76 96.99,465.00C97.83,468.29 98.50,471.82 98.98,475.50C99.22,477.29 99.68,479.76 100.00,481.00C100.32,482.24 100.78,484.71 101.02,486.50C101.50,490.21 102.18,493.74 103.02,497.00C103.34,498.24 103.76,500.94 103.97,503.00C104.17,505.06 104.72,507.99 105.20,509.50C106.85,514.77 107.00,515.33 107.00,516.43C107.00,517.81 112.18,533.42 113.50,536.00C114.04,537.05 114.79,538.83 115.18,539.95C115.56,541.07 116.78,543.51 117.87,545.37C118.96,547.23 121.14,550.93 122.70,553.60C126.58,560.22 129.96,564.47 136.74,571.26C144.36,578.87 148.13,581.68 155.29,585.07C164.47,589.42 165.06,589.65 168.00,590.07C173.51,590.85 175.99,591.33 176.35,591.69C176.84,592.18 186.76,591.73 191.50,591.00Z M477.60,584.40C477.27,584.07 477.00,583.60 477.00,583.37C477.00,582.85 479.52,579.16 480.84,577.75C481.35,577.20 483.62,574.46 485.87,571.67C492.64,563.29 492.58,563.31 510.50,561.99C513.94,561.74 518.89,561.30 521.50,561.01C528.16,560.26 536.11,559.56 544.00,559.01C547.71,558.75 552.83,558.31 555.38,558.02C557.92,557.73 562.08,557.27 564.62,556.98C567.17,556.69 572.29,556.26 576.00,556.01C579.71,555.75 584.66,555.30 587.00,555.00C591.10,554.48 596.29,554.02 609.50,553.01C612.94,552.75 617.89,552.29 620.50,552.00C623.11,551.71 628.06,551.25 631.50,551.00C638.00,550.51 644.39,549.90 652.50,548.99C655.11,548.69 660.74,548.25 665.00,548.01C669.26,547.76 674.66,547.31 677.00,547.01C683.35,546.20 690.45,545.52 698.00,545.01C701.71,544.76 706.66,544.31 709.00,544.01C713.71,543.41 721.03,542.73 730.50,542.01C733.94,541.75 738.89,541.30 741.50,541.01C747.58,540.33 755.59,539.60 763.50,539.02C766.94,538.77 771.44,538.31 773.50,538.01C775.56,537.71 779.16,537.26 781.50,537.02C785.77,536.57 788.81,536.04 793.00,535.01C794.24,534.70 796.04,534.27 797.00,534.04C797.96,533.82 799.71,533.27 800.88,532.82C802.04,532.37 803.91,531.66 805.02,531.25C814.61,527.66 822.95,521.57 830.00,513.00C831.24,511.49 832.76,509.68 833.38,508.97C836.07,505.89 847.00,485.04 847.00,482.99C847.00,482.42 847.41,481.13 847.91,480.11C848.41,479.08 849.10,477.24 849.44,476.00C849.78,474.76 850.27,473.13 850.53,472.38C850.79,471.62 851.21,470.38 851.47,469.62C851.73,468.87 852.22,467.24 852.56,466.00C852.90,464.76 853.59,462.92 854.09,461.89C854.59,460.87 855.00,459.19 855.01,458.14C855.01,457.10 855.68,454.34 856.50,452.00C857.32,449.66 857.99,447.22 857.99,446.57C858.00,445.91 858.47,443.89 859.04,442.07C860.83,436.38 861.00,435.71 861.00,434.46C861.00,433.79 861.45,432.00 862.00,430.50C862.55,429.00 863.00,427.21 863.00,426.54C863.00,425.29 863.17,424.62 864.96,418.93C865.53,417.11 866.00,415.10 866.00,414.47C866.00,413.29 866.18,412.59 867.96,406.93C868.53,405.11 869.00,403.09 869.01,402.43C869.01,401.78 869.68,399.34 870.50,397.00C871.32,394.66 871.99,391.99 871.99,391.07C872.00,390.14 872.47,387.89 873.04,386.07C874.84,380.33 875.00,379.71 875.00,378.31C875.00,377.56 875.38,376.23 875.83,375.35C876.77,373.55 877.41,371.04 877.94,367.00C878.14,365.49 878.68,363.53 879.15,362.65C879.62,361.77 880.00,360.44 880.00,359.69C880.00,358.29 880.16,357.67 881.96,351.93C882.53,350.11 883.00,348.10 883.00,347.47C883.00,346.29 883.18,345.59 884.96,339.93C885.53,338.11 886.00,336.12 886.00,335.50C886.00,334.88 886.47,332.89 887.04,331.07C888.82,325.41 889.00,324.71 889.00,323.53C889.00,322.90 889.47,320.89 890.04,319.07C891.84,313.33 892.00,312.71 892.00,311.32C892.00,310.57 892.45,309.08 893.00,308.00C893.55,306.92 894.00,305.43 894.00,304.68C894.00,303.29 894.16,302.67 895.96,296.93C896.53,295.11 897.00,293.10 897.00,292.47C897.00,291.29 897.18,290.59 898.96,284.93C899.53,283.11 900.00,281.12 900.00,280.50C900.00,279.88 900.47,277.89 901.04,276.07C902.82,270.40 903.00,269.71 903.01,268.46C903.01,267.80 903.38,266.24 903.83,265.00C906.15,258.63 907.16,247.27 906.09,239.75C905.20,233.54 904.92,232.66 901.51,225.25C898.86,219.50 893.12,212.17 888.00,207.99C886.49,206.76 884.69,205.23 884.00,204.59C883.31,203.96 882.08,203.08 881.25,202.65C880.42,202.22 878.96,201.25 878.00,200.49C875.73,198.72 863.98,192.84 859.63,191.31C857.77,190.65 855.58,189.88 854.75,189.59C853.92,189.30 852.35,188.84 851.25,188.57C850.15,188.30 848.01,187.69 846.50,187.22C844.99,186.75 842.74,186.18 841.50,185.95C836.40,185.00 834.13,184.53 832.00,183.98C829.87,183.44 827.59,183.12 817.50,182.01C815.16,181.75 811.56,181.29 809.50,180.99C807.44,180.70 803.39,180.25 800.50,179.99C797.61,179.74 793.39,179.30 791.12,179.02C788.86,178.73 785.14,178.27 782.88,177.98C780.61,177.69 776.16,177.26 773.00,177.01C769.84,176.76 765.56,176.31 763.50,176.01C758.90,175.34 752.45,174.62 745.50,174.01C742.61,173.76 738.56,173.30 736.50,173.00C732.69,172.45 726.97,171.85 717.50,171.02C714.61,170.77 710.79,170.31 709.00,170.00C707.21,169.68 703.95,169.31 701.75,169.18C698.31,168.96 697.56,168.74 696.38,167.62C694.50,165.84 694.51,165.73 696.96,157.93C697.53,156.11 698.00,153.95 698.00,153.14C698.00,149.82 700.11,149.50 712.00,150.99C718.45,151.80 724.69,152.47 730.50,152.99C733.39,153.25 737.66,153.70 740.00,153.99C744.43,154.55 749.62,155.14 757.25,155.98C759.73,156.25 763.66,156.71 766.00,157.00C770.00,157.50 773.02,157.81 784.88,158.98C787.56,159.24 791.44,159.70 793.50,160.00C795.56,160.30 799.39,160.75 802.00,161.01C809.88,161.79 815.55,162.43 819.50,163.00C821.56,163.30 825.39,163.74 828.00,163.98C830.61,164.22 833.93,164.66 835.38,164.96C839.96,165.90 842.93,166.49 845.38,166.93C846.68,167.16 848.76,167.72 850.00,168.17C851.24,168.62 852.81,168.99 853.50,169.00C854.57,169.02 863.69,172.01 870.88,174.70C874.38,176.01 886.04,181.99 889.00,183.99C890.51,185.02 892.42,186.21 893.25,186.65C894.08,187.08 895.31,187.96 896.00,188.59C896.69,189.23 898.48,190.76 899.99,192.00C907.78,198.39 914.66,207.22 919.46,217.00C920.63,219.37 923.65,228.27 925.49,234.75C926.19,237.21 925.89,256.57 925.10,260.25C924.19,264.49 923.65,266.64 922.78,269.50C922.31,271.01 921.73,272.94 921.47,273.79C921.21,274.63 921.00,275.84 921.00,276.47C921.00,277.10 920.57,279.00 920.03,280.68C919.50,282.37 918.81,284.76 918.50,286.00C918.19,287.24 917.50,289.63 916.97,291.32C916.43,293.00 916.00,294.90 916.00,295.53C916.00,296.16 915.79,297.37 915.53,298.21C915.10,299.64 914.84,300.63 913.50,306.00C913.23,307.10 912.76,308.96 912.47,310.12C912.17,311.29 911.50,313.63 910.97,315.32C910.43,317.00 910.00,318.90 910.00,319.53C910.00,320.16 909.79,321.37 909.53,322.21C909.07,323.73 908.39,326.32 907.42,330.25C907.15,331.35 906.50,333.63 905.97,335.32C905.43,337.00 905.00,338.90 905.00,339.53C905.00,340.71 904.82,341.41 903.04,347.07C902.47,348.89 902.00,350.90 902.00,351.53C902.00,352.16 901.79,353.37 901.54,354.21C901.28,355.06 900.62,357.32 900.08,359.25C899.14,362.54 898.77,363.92 897.47,369.12C897.17,370.29 896.72,371.94 896.47,372.79C896.21,373.63 896.00,374.84 896.00,375.47C896.00,376.10 895.57,378.00 895.03,379.68C894.50,381.37 893.81,383.76 893.50,385.00C893.19,386.24 892.50,388.63 891.97,390.32C891.43,392.00 891.00,393.90 891.00,394.53C891.00,395.71 890.82,396.41 889.04,402.07C888.47,403.89 888.00,405.90 888.00,406.53C888.00,407.71 887.82,408.41 886.04,414.07C885.47,415.89 885.00,417.90 885.00,418.53C885.00,419.71 884.82,420.41 883.04,426.07C882.47,427.89 882.00,429.88 882.00,430.50C882.00,431.12 881.53,433.11 880.96,434.93C879.18,440.59 879.00,441.29 879.00,442.47C879.00,443.10 878.57,445.00 878.03,446.68C877.50,448.37 876.85,450.65 876.57,451.75C876.30,452.85 875.69,454.99 875.22,456.50C874.75,458.01 874.19,460.26 873.97,461.50C873.19,465.81 872.66,467.76 871.83,469.35C871.38,470.23 871.00,471.65 871.00,472.50C871.00,473.34 870.59,474.87 870.09,475.89C869.59,476.92 868.90,478.76 868.56,480.00C867.74,482.99 867.26,484.33 863.21,495.13C861.57,499.50 852.75,516.02 850.45,519.04C849.73,519.98 848.78,521.46 848.34,522.32C847.12,524.68 835.63,536.04 830.91,539.53C826.43,542.85 816.59,548.03 811.92,549.53C810.33,550.03 808.52,550.72 807.89,551.06C807.26,551.40 805.91,551.86 804.88,552.09C803.84,552.31 802.16,552.71 801.12,552.98C800.09,553.24 798.24,553.71 797.00,554.02C793.11,555.00 776.78,557.03 765.00,558.00C759.29,558.48 753.34,559.04 743.75,560.02C741.00,560.30 735.49,560.74 731.50,560.99C727.51,561.24 722.34,561.69 720.00,561.99C717.66,562.29 713.11,562.76 709.88,563.02C706.64,563.28 701.36,563.72 698.12,563.98C694.89,564.24 690.34,564.70 688.00,565.00C685.66,565.30 681.11,565.76 677.88,566.02C662.85,567.25 659.94,567.50 655.50,568.00C651.06,568.50 648.15,568.75 633.12,569.98C629.89,570.24 625.34,570.71 623.00,571.01C620.66,571.31 615.49,571.76 611.50,572.01C607.51,572.25 602.11,572.70 599.50,572.99C593.65,573.65 585.74,574.37 577.50,574.99C574.06,575.25 569.11,575.70 566.50,576.00C561.69,576.54 554.84,577.13 543.50,577.98C540.06,578.24 535.34,578.70 533.00,579.00C528.81,579.53 522.76,580.07 510.50,580.98C507.06,581.23 502.56,581.69 500.50,582.00C498.44,582.31 493.49,582.72 489.50,582.91C484.03,583.17 481.86,583.46 480.65,584.12C478.76,585.16 478.39,585.19 477.60,584.40Z M742.75,515.95C740.00,514.27 736.47,512.25 734.89,511.45C733.32,510.66 730.36,508.94 728.30,507.63C726.24,506.32 722.80,504.26 720.66,503.05C713.25,498.89 707.50,495.43 706.75,494.68C705.71,493.64 705.81,490.32 706.96,488.11C707.96,486.16 712.64,478.18 717.00,471.00C719.76,466.46 730.87,447.64 736.65,437.75C738.57,434.45 742.17,428.38 744.65,424.25C747.13,420.12 750.56,414.39 752.28,411.50C754.00,408.61 756.45,404.59 757.73,402.57C760.45,398.25 760.19,397.33 756.09,396.79C745.66,395.42 742.51,394.82 740.65,393.84C739.77,393.38 738.59,393.00 738.03,393.00C737.48,393.00 735.61,392.35 733.88,391.54C732.16,390.74 729.78,389.69 728.60,389.21C715.99,384.04 698.77,368.32 691.66,355.50C690.82,353.99 689.41,351.44 688.51,349.84C687.62,348.24 686.44,345.77 685.89,344.34C683.95,339.33 682.36,334.73 681.93,332.88C681.70,331.84 681.26,330.04 680.97,328.88C679.47,322.88 679.34,321.00 679.32,306.00C679.31,294.83 679.49,289.60 679.93,288.00C680.59,285.66 681.22,282.67 681.90,278.62C682.13,277.32 682.59,275.74 682.93,275.11C683.27,274.48 683.97,272.67 684.47,271.08C688.13,259.64 699.45,243.64 710.00,235.00C711.51,233.76 713.31,232.23 714.00,231.59C714.69,230.96 715.92,230.08 716.75,229.65C717.58,229.22 719.04,228.26 720.00,227.52C721.50,226.36 723.53,225.17 728.25,222.67C731.84,220.77 737.54,218.28 739.12,217.92C740.16,217.69 741.84,217.31 742.88,217.09C743.91,216.86 745.31,216.36 746.00,215.98C746.69,215.59 748.83,215.10 750.75,214.88C752.67,214.65 756.05,214.23 758.25,213.94C767.69,212.68 787.17,213.90 794.50,216.21C796.01,216.69 798.15,217.30 799.25,217.57C803.66,218.65 807.47,220.19 813.48,223.29C820.96,227.15 827.24,231.83 834.27,238.80C844.45,248.90 851.06,258.68 856.01,271.00C856.61,272.51 857.46,274.54 857.89,275.50C858.31,276.46 858.84,278.26 859.05,279.50C859.26,280.74 859.69,282.76 860.00,284.00C861.50,290.01 861.66,291.92 861.65,304.00C861.64,315.96 861.35,319.69 860.04,324.88C859.74,326.04 859.31,327.84 859.08,328.88C858.86,329.91 858.29,331.47 857.83,332.35C857.38,333.23 857.00,334.36 857.00,334.86C857.00,335.36 856.53,337.00 855.95,338.51C855.37,340.02 854.58,342.10 854.20,343.14C853.27,345.65 849.10,353.72 846.00,359.00C844.63,361.34 842.46,365.27 841.19,367.75C839.91,370.23 838.04,373.49 837.03,375.00C836.02,376.51 833.61,380.45 831.67,383.75C817.33,408.16 806.07,427.24 801.93,434.12C800.32,436.81 797.68,441.19 796.07,443.88C794.46,446.56 791.44,451.68 789.36,455.25C787.28,458.82 784.42,463.66 783.00,466.00C781.58,468.34 778.65,473.29 776.50,477.00C774.35,480.71 771.43,485.66 770.00,488.00C768.58,490.34 766.68,493.49 765.79,495.00C764.89,496.51 762.80,500.00 761.15,502.75C759.50,505.50 757.17,509.44 755.99,511.50C753.23,516.28 750.71,519.00 749.02,519.00C748.32,519.00 745.50,517.62 742.75,515.95Z M126.41,503.66C124.91,502.09 125.07,503.65 123.99,479.88C123.72,473.89 123.27,463.99 122.99,457.88C122.71,451.76 122.27,438.99 122.01,429.50C121.76,420.01 121.30,408.99 121.00,405.00C120.70,401.01 120.24,390.89 119.98,382.50C119.53,367.93 119.12,357.12 117.99,330.00C117.71,323.26 117.27,310.44 117.00,301.50C116.55,286.19 116.24,279.01 114.99,255.50C114.70,250.14 114.26,237.54 114.00,227.50C113.74,217.46 113.30,204.86 113.01,199.50C111.77,176.29 111.78,175.90 113.36,174.38C114.77,173.03 114.77,173.03 127.26,172.78C134.13,172.64 144.14,172.29 149.50,171.99C162.50,171.26 208.41,171.23 214.25,171.94C216.72,172.24 220.78,172.69 223.25,172.94C225.72,173.19 228.76,173.66 230.00,173.98C231.24,174.30 233.26,174.74 234.50,174.96C236.61,175.33 246.36,178.57 252.49,180.94C253.99,181.52 256.47,182.76 257.99,183.68C259.51,184.61 261.54,185.78 262.50,186.26C265.33,187.70 273.67,194.22 277.35,197.87C283.47,203.93 290.91,213.88 292.44,218.05C292.79,218.98 293.95,221.61 295.03,223.88C296.12,226.16 297.00,228.60 297.00,229.32C297.00,230.03 297.47,232.11 298.04,233.93C298.61,235.76 299.29,237.94 299.54,238.79C299.79,239.63 300.00,246.94 299.99,255.04C299.99,269.75 299.99,269.75 298.50,274.00C297.68,276.34 297.01,278.87 297.01,279.63C297.00,280.39 295.55,283.90 293.79,287.43C288.76,297.46 282.05,305.99 272.76,314.16C270.78,315.89 270.77,315.92 271.71,316.96C272.23,317.53 272.96,318.00 273.34,318.00C275.53,318.00 293.03,328.33 298.87,333.08C306.19,339.02 313.46,346.91 316.83,352.58C320.50,358.74 325.00,367.66 325.00,368.78C325.00,369.22 325.60,371.30 326.32,373.41C327.05,375.52 327.84,378.32 328.07,379.62C328.31,380.93 328.74,383.18 329.04,384.62C331.15,394.94 331.13,413.85 329.01,422.00C328.69,423.24 328.24,425.49 328.02,427.00C327.56,430.15 326.97,432.14 325.81,434.38C325.37,435.24 325.00,436.42 325.00,437.00C325.00,438.80 316.19,455.50 312.64,460.44C308.89,465.67 299.54,475.39 294.39,479.43C290.48,482.50 280.82,488.41 279.00,488.84C278.31,489.01 276.67,489.68 275.36,490.34C271.86,492.09 261.19,495.59 258.00,496.04C256.49,496.25 254.24,496.68 253.00,496.99C248.72,498.08 245.73,498.58 241.00,499.03C238.39,499.27 234.34,499.72 232.00,500.02C227.24,500.64 212.92,501.28 188.00,502.00C178.79,502.26 166.69,502.71 161.12,502.99C155.56,503.27 146.56,503.70 141.12,503.95C135.69,504.19 130.46,504.55 129.50,504.73C128.00,505.03 127.56,504.88 126.41,503.66Z M202.00,440.96C207.91,440.75 214.66,440.33 217.00,440.02C219.34,439.72 223.16,439.30 225.50,439.08C227.84,438.85 230.99,438.28 232.50,437.81C237.77,436.14 238.33,436.00 239.68,436.00C240.43,436.00 241.92,435.55 243.00,435.00C244.08,434.45 245.23,434.00 245.55,434.00C246.99,434.00 254.41,428.99 257.51,425.92C261.51,421.96 263.77,418.83 265.06,415.44C265.58,414.10 266.45,411.82 267.00,410.38C268.10,407.50 268.44,397.76 267.54,394.79C267.28,393.94 266.56,391.56 265.94,389.50C261.81,375.79 251.82,366.13 236.34,360.89C233.82,360.04 230.29,359.16 228.50,358.94C226.71,358.72 223.79,358.27 222.00,357.95C220.15,357.62 211.66,357.28 202.29,357.17L185.83,356.97L184.40,358.35C182.96,359.72 182.96,359.72 183.22,369.24C183.36,374.47 183.71,383.14 184.00,388.50C184.29,393.86 184.73,405.79 184.98,415.00C185.59,437.40 185.73,438.88 187.41,440.66C188.47,441.78 189.01,441.99 190.00,441.71C190.69,441.51 196.09,441.17 202.00,440.96Z M776.75,344.12C778.40,343.89 780.47,343.32 781.35,342.85C782.23,342.38 783.16,342.00 783.41,342.00C784.16,342.00 789.51,338.65 792.63,336.23C797.15,332.72 805.00,321.24 805.00,318.13C805.00,317.64 805.45,316.00 806.00,314.50C806.81,312.27 807.00,310.52 807.00,305.10C807.00,297.80 806.18,294.31 803.01,288.01C801.22,284.47 795.52,276.81 793.21,274.83C789.07,271.30 781.58,267.43 777.75,266.85C765.57,265.01 755.68,268.07 747.21,276.32C740.57,282.80 737.84,286.98 735.25,294.69C733.40,300.23 733.40,311.79 735.26,317.34C738.80,327.87 747.42,337.95 755.56,341.06C756.90,341.58 759.18,342.45 760.62,343.00C762.06,343.55 764.36,344.00 765.74,344.01C767.12,344.01 768.59,344.24 769.00,344.52C769.73,345.02 770.62,344.97 776.75,344.12Z M195.50,300.02C205.18,299.31 208.38,298.78 213.34,297.11C222.80,293.90 227.41,290.84 232.34,284.50C235.36,280.62 236.44,278.49 237.94,273.50C238.56,271.44 239.28,269.06 239.54,268.21C239.79,267.37 240.00,265.70 240.00,264.50C240.00,263.30 239.79,261.63 239.54,260.79C239.28,259.94 238.56,257.56 237.94,255.50C235.62,247.77 232.29,242.86 226.29,238.30C223.33,236.05 218.41,233.49 216.00,232.94C215.04,232.72 213.24,232.29 212.00,231.98C205.87,230.43 198.14,230.07 185.94,230.76C180.96,231.04 180.54,231.15 179.29,232.46C177.94,233.86 177.94,233.86 178.23,240.56C178.99,258.43 179.54,274.40 179.77,285.74C180.03,298.23 180.03,298.23 181.39,299.65C182.69,301.00 182.90,301.06 186.00,300.77C187.79,300.61 192.06,300.27 195.50,300.02Z"/>
  <path fill="#006cb5" d="M174.35,593.68C173.99,593.33 171.50,592.84 166.00,592.07C163.06,591.65 162.47,591.42 153.29,587.07C146.13,583.68 142.36,580.87 134.74,573.26C127.96,566.47 124.58,562.22 120.70,555.60C119.14,552.93 116.96,549.23 115.87,547.37C114.78,545.51 113.56,543.07 113.18,541.95C112.79,540.83 112.04,539.05 111.50,538.00C110.18,535.42 105.00,519.81 105.00,518.43C105.00,517.33 104.85,516.77 103.20,511.50C102.72,509.99 102.17,507.06 101.97,505.00C101.76,502.94 101.34,500.24 101.02,499.00C100.18,495.74 99.50,492.21 99.02,488.50C98.78,486.71 98.32,484.24 98.00,483.00C97.68,481.76 97.22,479.29 96.98,477.50C96.50,473.82 95.83,470.29 94.99,467.00C94.67,465.76 94.22,463.29 93.97,461.50C93.06,454.70 92.60,452.19 91.99,450.50C91.64,449.54 91.18,447.06 90.98,445.00C90.77,442.94 90.34,440.24 90.02,439.00C89.07,435.31 88.46,431.97 88.02,428.00C87.79,425.94 87.33,423.24 87.01,422.00C86.69,420.76 86.23,418.51 85.98,417.00C85.39,413.25 84.67,409.69 83.99,407.00C83.67,405.76 83.22,403.29 82.97,401.50C82.23,396.02 81.60,392.35 80.99,390.00C80.67,388.76 80.23,386.29 80.00,384.50C79.77,382.71 79.33,380.24 79.01,379.00C78.06,375.27 77.46,371.95 77.02,368.00C76.79,365.94 76.34,363.24 76.02,362.00C75.18,358.74 74.50,355.21 74.02,351.50C73.78,349.71 73.33,347.24 73.01,346.00C72.69,344.76 72.22,342.46 71.96,340.88C71.71,339.29 71.29,336.71 71.04,335.12C70.78,333.54 70.31,331.24 69.99,330.00C69.67,328.76 69.22,326.29 68.98,324.50C68.50,320.82 67.83,317.29 66.99,314.00C66.67,312.76 66.22,310.29 65.97,308.50C65.06,301.70 64.60,299.19 63.99,297.50C63.64,296.54 63.18,294.06 62.98,292.00C62.77,289.94 62.34,287.24 62.02,286.00C61.19,282.80 60.51,279.26 60.00,275.50C59.76,273.71 59.33,271.12 59.04,269.75C57.78,263.60 57.42,261.54 57.04,258.50C56.82,256.71 56.35,254.46 56.00,253.50C55.65,252.54 55.18,250.29 54.95,248.50C54.30,243.39 53.63,239.44 52.99,237.00C52.67,235.76 52.22,233.29 51.98,231.50C51.50,227.82 50.83,224.29 49.99,221.00C49.67,219.76 49.22,217.29 48.98,215.50C48.75,213.71 48.32,211.07 48.03,209.62C47.74,208.18 47.26,205.82 46.97,204.38C46.68,202.93 46.25,200.29 46.02,198.50C45.78,196.71 45.32,194.24 45.00,193.00C42.75,184.39 42.83,168.29 45.16,162.00C45.61,160.76 45.99,159.12 45.99,158.34C46.00,156.28 53.46,141.99 57.35,136.57C66.16,124.31 83.01,111.65 96.08,107.47C97.67,106.97 99.48,106.27 100.11,105.92C100.74,105.58 102.54,105.11 104.12,104.90C105.71,104.68 108.41,104.25 110.12,103.93C114.14,103.21 129.49,103.23 135.00,103.97C137.34,104.28 141.84,104.74 145.00,104.99C148.16,105.24 152.44,105.69 154.50,105.99C160.98,106.92 166.07,107.52 171.50,107.99C174.39,108.23 178.21,108.69 180.00,109.00C183.45,109.59 189.58,110.23 199.00,110.98C202.16,111.23 206.21,111.68 208.00,111.99C211.62,112.62 217.59,113.29 225.50,113.98C228.39,114.23 232.21,114.69 234.00,115.01C235.79,115.32 240.06,115.77 243.50,116.01C249.63,116.45 254.00,116.93 261.50,118.01C263.56,118.31 267.84,118.75 271.00,119.00C274.16,119.25 278.44,119.69 280.50,119.99C285.10,120.66 291.55,121.38 298.50,121.99C301.39,122.24 305.44,122.69 307.50,122.99C313.98,123.92 319.07,124.52 324.50,124.99C327.39,125.25 331.44,125.70 333.50,126.00C337.03,126.51 339.49,126.78 351.75,127.98C354.50,128.25 358.66,128.71 361.00,129.00C363.34,129.29 367.39,129.74 370.00,130.00C375.39,130.53 381.02,131.22 386.50,132.02C388.56,132.31 393.06,132.76 396.50,133.00C399.94,133.24 404.44,133.69 406.50,133.99C411.08,134.66 417.52,135.37 424.50,135.99C427.39,136.24 431.44,136.70 433.50,136.99C438.12,137.66 444.59,138.38 451.50,138.99C454.39,139.24 458.44,139.70 460.50,140.00C464.01,140.51 466.60,140.79 478.88,141.97C481.56,142.23 485.21,142.69 487.00,143.00C488.79,143.31 492.61,143.77 495.50,144.01C500.40,144.43 502.30,144.65 513.12,146.02C515.39,146.31 520.06,146.75 523.50,146.99C526.94,147.24 531.38,147.68 533.38,147.97C535.37,148.26 538.63,148.74 540.62,149.03C542.62,149.32 546.84,149.75 550.00,149.99C553.16,150.23 557.21,150.68 559.00,150.99C563.28,151.73 569.81,152.43 577.50,152.98C580.94,153.22 585.21,153.68 587.00,153.99C588.79,154.30 592.39,154.77 595.00,155.02C602.64,155.76 608.48,156.43 612.50,157.01C614.56,157.31 618.84,157.76 622.00,158.01C628.70,158.54 635.21,159.24 640.50,160.00C642.56,160.29 645.41,160.66 646.84,160.81C650.43,161.20 651.16,162.12 650.83,165.84C650.47,170.01 649.78,173.59 649.12,174.80C648.27,176.35 647.02,180.12 647.01,181.14C647.00,181.64 646.55,182.92 646.00,184.00C645.45,185.08 645.00,186.59 645.00,187.36C645.00,188.13 644.57,189.89 644.05,191.26C643.52,192.63 642.85,194.48 642.55,195.38C642.25,196.27 641.75,197.73 641.45,198.62C641.15,199.52 640.48,201.37 639.95,202.74C639.43,204.11 639.00,205.64 639.00,206.13C639.00,206.63 638.33,208.37 637.50,210.00C636.67,211.63 636.00,213.44 636.00,214.01C636.00,214.58 635.67,215.69 635.27,216.47C634.86,217.25 633.99,219.43 633.32,221.32C632.66,223.20 631.61,225.99 631.00,227.50C630.39,229.01 629.34,231.79 628.68,233.67C628.02,235.55 627.01,238.00 626.45,239.10C625.88,240.21 625.01,242.41 624.50,244.00C623.99,245.59 623.09,247.84 622.50,249.00C621.91,250.16 621.02,252.38 620.52,253.93C620.02,255.48 619.05,257.99 618.37,259.50C617.68,261.01 616.39,263.94 615.50,266.00C614.62,268.06 612.59,272.56 611.00,276.00C609.42,279.44 607.16,284.39 606.00,287.00C599.47,301.66 575.96,349.31 568.50,363.00C566.33,366.99 563.39,372.50 561.96,375.25C560.54,378.00 557.91,382.73 556.11,385.75C550.32,395.53 549.64,396.71 548.36,399.25C547.67,400.62 545.93,403.66 544.50,406.00C543.06,408.34 541.14,411.74 540.22,413.56C537.63,418.70 534.07,421.12 531.94,419.19C531.09,418.42 530.97,417.90 531.23,416.01C531.68,412.83 531.63,410.81 531.01,406.50C530.71,404.44 530.29,401.06 530.07,399.00C529.31,391.82 524.54,379.83 518.60,370.15C512.27,359.86 498.43,344.64 487.95,336.46C485.37,334.44 482.73,332.28 482.10,331.64C481.46,331.01 478.31,328.49 475.10,326.05C471.88,323.62 468.69,321.12 468.00,320.50C467.31,319.88 464.16,317.41 461.00,315.00C457.84,312.59 454.69,310.12 454.00,309.50C453.31,308.88 450.14,306.40 446.96,303.99C443.77,301.57 440.85,299.28 440.46,298.89C440.07,298.51 437.61,296.54 435.00,294.51C432.39,292.48 429.91,290.46 429.50,290.03C429.09,289.59 427.51,288.23 426.00,287.00C424.49,285.77 423.14,284.65 423.00,284.50C422.86,284.35 421.52,283.23 420.01,281.99C418.50,280.76 416.11,278.60 414.69,277.20C413.28,275.79 411.27,273.99 410.22,273.20C409.17,272.40 406.99,269.96 405.37,267.78C400.28,260.92 399.02,257.66 399.01,251.36C399.00,247.35 399.15,246.68 400.72,243.57C403.96,237.13 410.93,231.55 419.27,228.72C421.83,227.85 435.15,227.94 438.75,228.85C447.97,231.18 463.01,241.37 470.00,250.00C472.76,253.41 476.86,257.50 477.53,257.50C477.81,257.50 483.03,252.49 489.15,246.38C495.26,240.26 501.50,234.24 503.01,233.00C506.34,230.27 517.00,219.59 517.00,218.99C517.00,218.39 504.31,205.71 501.00,203.01C499.49,201.77 498.14,200.63 498.00,200.47C497.36,199.73 485.87,190.95 483.23,189.19C478.72,186.18 473.26,183.00 472.60,183.00C472.28,183.00 470.61,182.35 468.88,181.56C462.71,178.71 460.96,178.00 460.20,178.00C459.77,178.00 457.70,177.40 455.59,176.66C453.48,175.93 450.29,175.15 448.50,174.94C446.71,174.73 444.01,174.28 442.50,173.95C438.84,173.14 420.16,173.14 416.50,173.95C414.99,174.28 412.29,174.73 410.50,174.94C408.71,175.15 405.52,175.93 403.41,176.66C401.30,177.40 399.22,178.00 398.79,178.00C398.37,178.00 396.16,178.87 393.88,179.94C391.61,181.01 388.63,182.39 387.25,183.00C384.74,184.11 375.27,190.64 372.00,193.50C371.04,194.35 369.34,195.74 368.24,196.60C367.13,197.46 365.65,198.91 364.94,199.81C364.23,200.72 362.66,202.62 361.45,204.04C355.69,210.78 351.73,217.11 348.99,224.00C348.38,225.51 347.54,227.54 347.12,228.50C346.37,230.22 345.88,232.04 344.98,236.50C344.74,237.74 344.27,239.99 343.94,241.50C343.14,245.24 343.14,260.12 343.95,263.00C344.29,264.24 344.75,266.49 344.96,268.00C346.33,277.68 356.96,298.26 364.68,306.15C365.27,306.76 366.76,308.49 368.00,309.99C370.90,313.52 378.49,321.11 382.01,324.00C383.52,325.24 385.99,327.49 387.50,329.00C389.01,330.51 391.49,332.76 393.00,333.99C394.51,335.22 396.09,336.59 396.50,337.03C396.91,337.46 399.39,339.48 402.00,341.51C404.61,343.54 407.06,345.50 407.45,345.88C407.83,346.26 410.42,348.29 413.20,350.38C415.98,352.48 420.39,355.91 423.00,358.00C425.61,360.10 430.92,364.19 434.78,367.10C438.65,370.01 442.14,372.70 442.53,373.07C442.93,373.45 444.49,374.76 446.00,375.99C447.51,377.22 449.09,378.58 449.50,379.00C449.91,379.42 451.48,380.78 452.99,382.01C456.99,385.28 465.49,393.88 468.38,397.56C471.04,400.96 474.00,406.39 474.00,407.87C474.00,408.36 474.45,410.00 475.00,411.50C477.08,417.18 476.05,426.05 472.50,432.99C469.77,438.35 457.98,447.82 452.00,449.45C450.76,449.79 448.37,450.50 446.68,451.03C444.30,451.79 442.15,452.00 437.00,452.00C431.85,452.00 429.70,451.79 427.32,451.03C425.63,450.50 423.24,449.79 422.00,449.44C412.67,446.85 398.98,435.39 389.50,422.24C387.16,419.00 384.56,415.57 383.72,414.61L382.20,412.88L373.72,418.45C365.31,423.98 361.43,426.56 353.75,431.72C351.55,433.20 348.40,435.23 346.75,436.22C342.71,438.66 337.29,443.10 337.10,444.13C337.01,444.58 337.82,446.26 338.90,447.85C339.98,449.45 341.33,451.68 341.91,452.82C343.17,455.29 347.92,462.04 350.16,464.52C351.03,465.49 352.76,467.52 354.00,469.02C357.46,473.21 368.54,484.02 371.56,486.14C377.05,489.99 386.42,495.84 388.06,496.45C388.99,496.79 391.16,497.73 392.88,498.54C394.61,499.34 396.48,500.00 397.03,500.00C397.59,500.00 398.69,500.33 399.46,500.73C401.66,501.87 405.12,502.98 406.50,503.00C407.19,503.01 408.76,503.39 410.00,503.85C413.43,505.13 419.96,505.60 434.50,505.60C448.16,505.60 455.46,505.12 458.50,504.02C459.46,503.67 461.26,503.20 462.50,502.98C466.91,502.17 468.77,501.66 470.35,500.83C471.23,500.38 472.47,500.00 473.10,500.00C473.73,500.00 475.71,499.10 477.50,498.00C481.38,495.61 481.90,495.57 483.72,497.47C485.53,499.36 485.27,500.40 482.01,504.49C480.63,506.21 479.50,507.80 479.50,508.02C479.50,508.23 478.52,509.61 477.33,511.08C476.13,512.55 474.84,514.33 474.45,515.04C473.38,517.00 467.02,525.63 459.11,535.86C455.18,540.94 450.30,547.30 448.27,549.98C446.23,552.66 444.27,555.17 443.90,555.55C443.52,555.94 441.32,558.61 439.01,561.50C436.69,564.39 433.56,567.92 432.05,569.34C429.32,571.94 429.32,571.94 424.28,572.21C414.39,572.74 406.20,573.43 403.00,574.01C401.21,574.33 396.26,574.78 392.00,575.01C387.74,575.25 382.34,575.69 380.00,575.99C373.73,576.79 366.61,577.47 359.00,578.00C352.27,578.47 346.49,579.01 337.50,580.01C334.89,580.30 329.71,580.74 326.00,580.99C322.29,581.25 317.34,581.70 315.00,582.00C312.66,582.30 307.94,582.76 304.50,583.02C291.76,583.98 286.14,584.47 282.00,585.00C279.66,585.30 274.94,585.75 271.50,586.01C264.07,586.56 256.84,587.27 251.00,588.01C248.66,588.31 243.49,588.76 239.50,589.01C229.77,589.63 222.04,590.33 217.50,591.01C215.44,591.32 210.04,591.77 205.50,592.00C200.96,592.23 195.56,592.69 193.50,593.01C189.02,593.70 174.87,594.20 174.35,593.68Z M159.00,501.00C164.64,500.71 176.79,500.26 186.00,500.00C210.92,499.28 225.24,498.64 230.00,498.02C232.34,497.72 236.39,497.27 239.00,497.03C243.73,496.58 246.72,496.08 251.00,494.99C252.24,494.68 254.49,494.25 256.00,494.04C259.19,493.59 269.86,490.09 273.36,488.34C274.67,487.68 276.31,487.01 277.00,486.84C278.82,486.41 288.48,480.50 292.39,477.43C297.54,473.39 306.89,463.67 310.64,458.44C314.19,453.50 323.00,436.80 323.00,435.00C323.00,434.42 323.37,433.24 323.81,432.38C324.97,430.14 325.56,428.15 326.02,425.00C326.24,423.49 326.69,421.24 327.01,420.00C329.07,412.09 329.08,396.63 327.04,386.62C326.74,385.18 326.31,382.93 326.07,381.62C325.84,380.32 325.05,377.52 324.32,375.41C323.60,373.30 323.00,371.22 323.00,370.78C323.00,369.66 318.50,360.74 314.83,354.58C311.46,348.91 304.19,341.02 296.87,335.08C291.14,330.43 273.54,320.00 271.41,320.00C270.23,320.00 268.00,317.34 268.00,315.94C268.00,314.87 268.70,313.96 271.07,311.90C276.64,307.08 279.53,303.97 284.08,297.87C288.86,291.46 294.99,280.10 295.01,277.63C295.01,276.87 295.68,274.34 296.50,272.00C297.99,267.75 297.99,267.75 297.99,255.04C298.00,248.04 297.79,241.63 297.54,240.79C297.29,239.94 296.61,237.76 296.04,235.93C295.47,234.11 295.00,232.03 295.00,231.32C295.00,230.60 294.12,228.16 293.03,225.88C291.95,223.61 290.79,220.98 290.44,220.05C288.91,215.88 281.47,205.93 275.35,199.87C271.67,196.22 263.33,189.70 260.50,188.26C259.54,187.78 257.51,186.61 255.99,185.68C254.47,184.76 251.99,183.52 250.49,182.94C244.36,180.57 234.61,177.33 232.50,176.96C231.26,176.74 229.24,176.30 228.00,175.98C226.76,175.66 223.84,175.20 221.50,174.95C219.16,174.71 215.11,174.26 212.50,173.95C206.40,173.23 164.61,173.26 151.50,173.99C146.14,174.29 136.13,174.64 129.26,174.78C116.77,175.03 116.77,175.03 115.35,176.39C113.94,177.74 113.94,177.74 114.23,183.00C115.33,203.30 115.58,209.25 116.00,225.50C116.26,235.54 116.70,248.14 116.99,253.50C118.24,277.01 118.55,284.19 119.00,299.50C119.27,308.44 119.71,321.26 119.99,328.00C121.12,355.12 121.53,365.93 121.98,380.50C122.24,388.89 122.70,399.01 123.00,403.00C123.30,406.99 123.76,418.01 124.01,427.50C124.27,436.99 124.71,449.76 124.99,455.88C125.27,461.99 125.72,471.89 125.99,477.88C126.98,499.75 127.02,500.19 127.88,501.14C128.78,502.14 137.36,502.10 159.00,501.00Z M185.41,442.66C183.73,440.88 183.59,439.40 182.98,417.00C182.73,407.79 182.29,395.86 182.00,390.50C181.71,385.14 181.36,375.57 181.22,369.23L180.97,357.72L182.40,356.35L183.83,354.98L202.29,355.17C213.25,355.29 222.07,355.60 224.00,355.95C225.79,356.27 228.71,356.72 230.50,356.94C232.29,357.16 235.82,358.04 238.34,358.89C253.82,364.13 263.81,373.79 267.94,387.50C268.56,389.56 269.28,391.94 269.54,392.79C269.79,393.63 270.00,397.80 270.00,402.04C270.00,408.56 269.84,410.17 269.00,412.38C268.45,413.82 267.58,416.10 267.06,417.44C265.77,420.83 263.51,423.96 259.51,427.92C256.41,430.99 248.99,436.00 247.55,436.00C247.23,436.00 246.08,436.45 245.00,437.00C243.92,437.55 242.43,438.00 241.68,438.00C240.33,438.00 239.77,438.14 234.50,439.81C232.99,440.28 229.84,440.85 227.50,441.08C225.16,441.30 221.34,441.72 219.00,442.02C216.66,442.33 209.91,442.77 204.00,443.01C198.09,443.25 191.79,443.59 190.00,443.76C186.90,444.06 186.69,444.01 185.41,442.66Z M179.39,301.65C178.03,300.23 178.03,300.23 177.77,287.74C177.63,280.87 177.29,269.40 177.01,262.25C175.79,231.07 175.79,232.03 177.29,230.46C178.54,229.15 178.97,229.04 183.94,228.76C197.23,228.00 207.89,228.42 213.88,229.96C215.04,230.26 216.84,230.69 217.88,230.92C220.39,231.48 225.27,234.00 228.29,236.30C234.29,240.86 237.62,245.77 239.94,253.50C240.56,255.56 241.28,257.94 241.54,258.79C242.14,260.77 242.14,268.23 241.54,270.21C241.28,271.06 240.56,273.44 239.94,275.50C237.09,284.98 231.42,291.75 222.59,296.21C214.23,300.43 207.66,301.60 185.75,302.79C180.76,303.06 180.74,303.06 179.39,301.65Z"/>
  <path fill="#ff0000" d="M494.52,565.28C494.00,564.65 493.98,564.20 494.43,563.21C494.74,562.52 495.00,561.52 495.00,561.00C495.00,560.07 498.09,555.54 505.24,546.00C510.07,539.54 518.58,527.62 519.50,526.00C519.91,525.28 521.99,522.23 524.12,519.22C526.25,516.21 531.14,508.91 534.99,503.00C538.84,497.09 542.61,491.35 543.37,490.25C544.13,489.16 545.44,487.13 546.29,485.75C547.14,484.38 549.03,481.34 550.50,479.00C558.24,466.66 577.86,434.21 579.36,431.25C580.06,429.88 581.66,427.06 582.91,425.00C584.17,422.94 586.25,419.34 587.53,417.00C592.11,408.67 594.88,403.70 597.01,400.00C600.75,393.54 617.46,361.59 625.01,346.50C633.66,329.21 641.55,312.50 646.50,301.00C647.38,298.94 649.41,294.44 651.01,291.00C652.60,287.56 654.40,283.51 655.01,282.00C656.17,279.10 658.02,274.74 660.47,269.12C661.29,267.27 662.39,264.51 662.93,263.00C663.46,261.49 664.40,259.01 665.00,257.50C665.61,255.99 666.78,252.95 667.60,250.75C668.42,248.55 669.74,245.01 670.54,242.88C678.61,221.40 678.07,222.92 681.91,211.25C682.45,209.60 683.13,207.57 683.41,206.75C683.70,205.93 684.64,202.89 685.51,200.00C686.37,197.11 687.73,192.69 688.54,190.17C689.34,187.65 690.00,184.99 690.00,184.27C690.00,183.54 690.38,182.23 690.83,181.35C691.29,180.47 691.86,178.91 692.08,177.88C692.31,176.84 692.69,175.16 692.92,174.12C693.14,173.09 693.71,171.53 694.17,170.65C694.62,169.77 695.00,168.74 695.00,168.35C695.00,167.09 696.86,165.84 698.11,166.26C698.74,166.47 701.16,166.82 703.50,167.04C705.84,167.27 709.21,167.70 711.00,168.01C712.79,168.31 716.61,168.77 719.50,169.02C728.97,169.85 734.69,170.45 738.50,171.00C740.56,171.30 744.61,171.76 747.50,172.01C754.45,172.62 760.90,173.34 765.50,174.01C767.56,174.31 771.84,174.76 775.00,175.01C778.16,175.26 782.61,175.69 784.88,175.98C787.14,176.27 790.86,176.73 793.12,177.02C795.39,177.30 799.61,177.74 802.50,177.99C805.39,178.25 809.44,178.70 811.50,178.99C813.56,179.29 817.16,179.75 819.50,180.01C829.59,181.12 831.87,181.44 834.00,181.98C836.13,182.53 838.40,183.00 843.50,183.95C844.74,184.18 846.99,184.75 848.50,185.22C850.01,185.69 852.15,186.30 853.25,186.57C854.35,186.84 855.92,187.30 856.75,187.59C857.58,187.88 859.77,188.65 861.63,189.31C865.98,190.84 877.73,196.72 880.00,198.49C880.96,199.25 882.42,200.22 883.25,200.65C884.08,201.08 885.31,201.96 886.00,202.59C886.69,203.23 888.49,204.76 890.00,205.99C897.47,212.08 905.13,223.84 907.12,232.25C909.50,242.35 908.90,258.56 905.83,267.00C905.38,268.24 905.01,269.80 905.01,270.46C905.00,271.71 904.82,272.40 903.04,278.07C902.47,279.89 902.00,281.88 902.00,282.50C902.00,283.12 901.53,285.11 900.96,286.93C899.18,292.59 899.00,293.29 899.00,294.47C899.00,295.10 898.53,297.11 897.96,298.93C896.16,304.67 896.00,305.29 896.00,306.68C896.00,307.43 895.55,308.92 895.00,310.00C894.45,311.08 894.00,312.57 894.00,313.32C894.00,314.71 893.84,315.33 892.04,321.07C891.47,322.89 891.00,324.90 891.00,325.53C891.00,326.71 890.82,327.41 889.04,333.07C888.47,334.89 888.00,336.88 888.00,337.50C888.00,338.12 887.53,340.11 886.96,341.93C885.18,347.59 885.00,348.29 885.00,349.47C885.00,350.10 884.53,352.11 883.96,353.93C882.16,359.67 882.00,360.29 882.00,361.69C882.00,362.44 881.62,363.77 881.15,364.65C880.68,365.53 880.14,367.49 879.94,369.00C879.41,373.04 878.77,375.55 877.83,377.35C877.38,378.23 877.00,379.56 877.00,380.31C877.00,381.71 876.84,382.33 875.04,388.07C874.47,389.89 874.00,392.14 873.99,393.07C873.99,393.99 873.32,396.66 872.50,399.00C871.68,401.34 871.01,403.78 871.01,404.43C871.00,405.09 870.53,407.11 869.96,408.93C868.18,414.59 868.00,415.29 868.00,416.47C868.00,417.10 867.53,419.11 866.96,420.93C865.17,426.62 865.00,427.29 865.00,428.54C865.00,429.21 864.55,431.00 864.00,432.50C863.45,434.00 863.00,435.79 863.00,436.46C863.00,437.71 862.83,438.38 861.04,444.07C860.47,445.89 860.00,447.91 859.99,448.57C859.99,449.22 859.32,451.66 858.50,454.00C857.68,456.34 857.01,459.10 857.01,460.14C857.00,461.19 856.59,462.87 856.09,463.89C855.59,464.92 854.90,466.76 854.56,468.00C854.22,469.24 853.73,470.87 853.47,471.62C853.21,472.38 852.79,473.62 852.53,474.38C852.27,475.13 851.78,476.76 851.44,478.00C851.10,479.24 850.41,481.08 849.91,482.11C849.41,483.13 849.00,484.42 849.00,484.99C849.00,487.04 838.07,507.89 835.38,510.97C834.76,511.68 833.24,513.49 832.00,515.00C824.91,523.62 816.58,529.69 806.89,533.29C805.71,533.73 803.85,534.43 802.75,534.86C801.65,535.28 799.91,535.83 798.88,536.07C797.84,536.30 796.04,536.74 794.88,537.03C790.91,538.02 787.76,538.57 783.50,539.02C781.16,539.26 777.56,539.71 775.50,540.01C773.44,540.31 768.94,540.77 765.50,541.02C757.59,541.60 749.58,542.33 743.50,543.01C740.89,543.30 735.94,543.75 732.50,544.01C723.03,544.73 715.71,545.41 711.00,546.01C708.66,546.31 703.71,546.76 700.00,547.01C692.45,547.52 685.35,548.20 679.00,549.01C676.66,549.31 671.26,549.76 667.00,550.01C662.74,550.25 657.11,550.69 654.50,550.99C646.39,551.90 640.00,552.51 633.50,553.00C630.06,553.25 625.11,553.71 622.50,554.00C619.89,554.29 614.94,554.75 611.50,555.01C598.29,556.02 593.10,556.48 589.00,557.00C586.66,557.30 581.71,557.75 578.00,558.01C574.29,558.26 569.17,558.69 566.62,558.98C564.08,559.27 559.92,559.73 557.38,560.02C554.83,560.31 549.71,560.75 546.00,561.01C538.11,561.56 530.16,562.26 523.50,563.01C520.89,563.30 515.94,563.74 512.50,563.99C505.80,564.49 499.20,565.22 496.72,565.76C495.62,565.99 495.01,565.86 494.52,565.28Z M750.57,514.62C751.26,513.87 752.80,511.56 753.98,509.50C755.17,507.44 757.50,503.50 759.15,500.75C760.80,498.00 762.89,494.51 763.79,493.00C764.68,491.49 766.58,488.34 768.00,486.00C769.43,483.66 772.35,478.71 774.50,475.00C776.65,471.29 779.58,466.34 781.00,464.00C782.42,461.66 785.28,456.82 787.36,453.25C789.44,449.68 792.49,444.50 794.14,441.75C795.80,439.00 798.44,434.61 800.00,432.00C804.09,425.20 815.47,405.93 829.67,381.75C831.61,378.45 834.02,374.51 835.03,373.00C836.04,371.49 837.91,368.23 839.19,365.75C840.46,363.27 842.63,359.34 844.00,357.00C847.10,351.72 851.27,343.65 852.20,341.14C852.58,340.10 853.37,338.02 853.95,336.51C854.53,335.00 855.00,333.36 855.00,332.86C855.00,332.36 855.38,331.23 855.83,330.35C856.29,329.47 856.86,327.91 857.08,326.88C857.31,325.84 857.74,324.04 858.04,322.88C859.32,317.81 859.64,314.12 859.65,304.00C859.66,293.94 859.47,291.87 858.00,286.00C857.69,284.76 857.26,282.74 857.05,281.50C856.84,280.26 856.31,278.46 855.89,277.50C855.46,276.54 854.61,274.51 854.01,273.00C849.06,260.68 842.45,250.90 832.27,240.80C821.46,230.09 808.80,222.41 797.25,219.57C796.15,219.30 794.01,218.69 792.50,218.21C785.47,216.00 768.76,214.82 760.25,215.94C758.05,216.23 754.67,216.65 752.75,216.88C750.83,217.10 748.69,217.59 748.00,217.98C747.31,218.36 745.91,218.86 744.88,219.09C743.84,219.31 742.16,219.69 741.12,219.92C739.54,220.28 733.84,222.77 730.25,224.67C725.53,227.17 723.50,228.36 722.00,229.52C721.04,230.26 719.58,231.22 718.75,231.65C717.92,232.08 716.69,232.96 716.00,233.59C715.31,234.23 713.51,235.76 712.00,237.00C701.45,245.64 690.13,261.64 686.47,273.08C685.97,274.67 685.27,276.48 684.93,277.11C684.59,277.74 684.13,279.32 683.90,280.62C683.22,284.67 682.59,287.66 681.93,290.00C681.50,291.56 681.31,296.45 681.32,306.00C681.34,318.94 681.50,321.08 682.95,326.75C683.23,327.85 683.66,329.65 683.91,330.75C684.36,332.71 685.90,337.20 687.89,342.34C688.44,343.77 689.59,346.19 690.45,347.72C691.30,349.25 692.72,351.79 693.59,353.38C700.76,366.31 717.93,382.01 730.60,387.21C731.78,387.69 734.16,388.74 735.88,389.54C737.61,390.35 739.48,391.00 740.03,391.00C740.59,391.00 741.77,391.38 742.65,391.84C744.25,392.68 746.36,393.15 752.50,394.01C754.29,394.26 756.76,394.61 758.00,394.79C762.86,395.48 763.42,398.71 759.70,404.60C758.44,406.61 756.00,410.61 754.28,413.50C752.56,416.39 749.13,422.12 746.65,426.25C744.17,430.38 740.57,436.45 738.65,439.75C732.71,449.92 721.71,468.53 718.99,473.00C712.29,484.03 708.50,490.80 708.50,491.75C708.50,492.79 711.82,494.97 722.66,501.06C724.80,502.26 728.25,504.32 730.31,505.63C732.37,506.94 735.56,508.79 737.40,509.74C739.24,510.69 742.33,512.47 744.25,513.69C748.43,516.33 748.94,516.41 750.57,514.62Z M767.00,346.52C766.59,346.24 765.12,346.01 763.74,346.01C762.36,346.00 760.06,345.55 758.62,345.00C757.18,344.45 754.90,343.58 753.56,343.06C745.42,339.95 736.80,329.87 733.26,319.34C732.09,315.83 732.00,314.91 732.00,306.00C732.00,295.50 732.52,292.90 735.97,286.06C739.57,278.93 746.99,271.54 754.25,267.85C760.02,264.92 762.62,264.38 771.00,264.38C780.70,264.38 782.90,264.97 790.65,269.66C794.86,272.21 796.48,273.74 800.20,278.66C803.98,283.68 805.95,287.33 807.75,292.69C809.47,297.83 809.62,312.06 808.00,316.50C807.45,318.00 807.00,319.64 807.00,320.13C807.00,323.24 799.15,334.72 794.63,338.23C791.51,340.65 786.16,344.00 785.41,344.00C785.16,344.00 784.23,344.38 783.35,344.85C780.63,346.30 768.51,347.53 767.00,346.52Z"/>
  <path fill="#606062" d="M313.00,699.50C312.59,699.23 311.75,699.01 311.14,699.01C308.73,698.99 298.95,694.15 294.20,690.62C287.38,685.56 281.91,679.05 278.75,672.25C274.55,663.22 274.00,661.92 273.99,661.12C273.99,660.64 273.62,659.24 273.17,658.00C270.20,649.82 268.61,628.08 269.94,613.75C270.99,602.51 271.49,601.42 276.00,600.79C277.24,600.61 279.82,600.24 281.75,599.96C283.68,599.68 287.84,599.28 291.00,599.08C294.16,598.87 297.10,598.54 297.52,598.34C298.76,597.75 301.23,600.64 300.75,602.10C299.88,604.71 299.40,613.03 299.38,626.00C299.36,638.90 299.63,642.62 300.96,647.88C301.26,649.04 301.69,650.84 301.92,651.88C302.48,654.41 304.69,658.63 307.15,661.89C309.14,664.53 314.38,669.00 315.48,669.00C315.79,669.00 316.92,669.45 318.00,670.00C319.66,670.85 320.95,671.00 326.36,671.00C331.52,671.00 333.30,670.81 335.50,670.00C337.00,669.45 338.63,669.00 339.11,669.00C339.59,669.00 341.39,668.35 343.12,667.56C344.84,666.77 347.60,665.51 349.25,664.75C356.77,661.33 374.67,649.01 382.52,641.86C383.49,640.98 385.52,639.24 387.02,638.00C388.52,636.77 390.54,634.96 391.50,634.00C392.46,633.04 394.48,631.23 395.99,630.00C399.52,627.10 414.08,612.54 417.00,608.99C418.24,607.48 420.71,604.79 422.50,603.00C424.29,601.21 426.76,598.52 428.00,597.02C429.24,595.52 431.45,593.04 432.93,591.52C434.40,590.00 436.01,587.96 436.50,587.00C437.00,586.04 438.39,584.23 439.59,582.98C440.79,581.74 443.67,578.36 445.99,575.48C448.31,572.61 450.34,570.14 450.50,570.00C451.47,569.20 462.02,555.65 469.19,546.00C473.78,539.81 478.50,533.51 479.66,532.00C482.58,528.21 492.19,514.84 495.38,510.13C496.83,508.00 499.81,503.66 502.00,500.50C508.80,490.69 515.81,480.08 518.85,475.00C519.59,473.76 520.74,472.02 521.40,471.14C522.06,470.25 523.33,468.34 524.22,466.89C525.11,465.44 527.03,462.34 528.50,460.00C529.97,457.66 534.25,450.69 538.01,444.50C541.77,438.31 546.50,430.55 548.52,427.25C550.55,423.95 553.25,419.34 554.52,417.00C555.80,414.66 557.75,411.18 558.86,409.25C559.96,407.32 561.82,404.06 563.00,402.00C564.18,399.94 566.04,396.68 567.15,394.75C568.26,392.82 570.68,388.44 572.52,385.00C574.36,381.56 577.57,375.60 579.66,371.75C584.32,363.15 610.10,311.54 613.01,305.00C614.17,302.39 616.41,297.44 618.00,294.00C621.87,285.62 624.67,279.31 625.95,276.12C629.25,267.88 629.57,267.12 633.39,258.25C635.10,254.26 636.11,251.78 640.11,241.75C640.66,240.38 641.45,238.46 641.86,237.50C642.27,236.54 643.02,234.47 643.52,232.92C644.02,231.36 644.79,229.40 645.22,228.57C645.65,227.73 646.00,226.58 646.00,226.01C646.00,225.44 646.67,223.63 647.50,222.00C648.32,220.37 649.00,218.56 649.00,217.99C649.00,217.43 649.41,216.13 649.91,215.11C650.74,213.40 656.08,197.27 657.55,192.00C657.90,190.76 658.59,188.92 659.09,187.89C659.59,186.87 660.00,185.35 660.00,184.50C660.00,183.65 660.45,182.08 661.00,181.00C661.55,179.92 662.00,178.65 662.00,178.18C662.00,177.71 662.21,176.63 662.46,175.79C663.31,172.97 664.91,167.28 665.50,165.00C665.81,163.76 666.50,161.37 667.03,159.68C667.57,158.00 668.00,156.02 668.00,155.28C668.00,154.55 668.38,153.23 668.84,152.35C669.64,150.84 669.87,149.82 671.00,143.00C671.66,139.01 672.36,135.57 673.02,133.00C673.34,131.76 673.80,128.84 674.03,126.50C674.27,124.16 674.71,120.56 675.02,118.50C675.57,114.72 676.50,101.67 676.51,97.50C676.52,92.94 675.61,82.18 675.03,80.00C674.71,78.76 674.27,76.74 674.06,75.50C673.86,74.26 673.31,72.53 672.84,71.65C672.38,70.77 672.00,69.74 672.00,69.35C672.00,67.17 662.50,56.00 660.65,56.00C660.26,56.00 659.23,55.62 658.35,55.16C652.46,52.05 641.46,53.07 631.50,57.65C629.99,58.34 627.74,59.32 626.51,59.83C621.11,62.05 602.74,74.00 598.45,78.09C598.06,78.46 596.51,79.76 595.00,80.99C593.49,82.22 591.91,83.58 591.50,84.00C591.09,84.42 589.51,85.77 588.00,87.00C586.49,88.23 584.91,89.58 584.50,90.00C584.09,90.42 582.52,91.78 581.01,93.01C577.51,95.88 561.95,111.43 559.00,115.01C557.76,116.51 554.39,120.11 551.50,123.01C548.61,125.91 545.15,129.59 543.80,131.18C541.66,133.72 541.18,134.05 540.05,133.76C537.76,133.17 532.89,132.45 528.00,131.98C512.84,130.51 511.17,130.24 509.88,129.11C508.65,128.03 508.78,126.96 510.38,125.21C511.13,124.38 512.76,122.47 513.99,120.98C515.22,119.48 516.58,117.91 517.00,117.50C517.42,117.09 518.78,115.51 520.01,114.00C521.24,112.49 523.04,110.46 524.00,109.50C524.96,108.54 526.77,106.51 528.00,105.00C529.24,103.50 532.39,100.12 535.00,97.50C537.61,94.88 540.76,91.51 542.00,90.01C544.90,86.48 552.49,78.89 556.01,76.00C557.51,74.76 560.43,72.06 562.50,70.00C564.57,67.94 567.49,65.24 569.00,64.01C570.51,62.77 571.86,61.64 572.00,61.48C573.53,59.74 591.56,45.97 595.50,43.53C608.46,35.50 623.21,28.00 626.04,28.00C626.59,28.00 627.77,27.62 628.65,27.17C631.68,25.59 634.29,25.32 648.44,25.15C661.93,24.98 662.76,25.02 665.44,26.03C666.98,26.62 669.11,27.42 670.16,27.81C676.03,29.99 681.27,33.67 687.46,39.98C691.10,43.69 697.00,51.93 697.00,53.32C697.00,53.71 697.78,55.58 698.74,57.49C700.84,61.65 701.98,64.81 702.00,66.50C702.01,67.19 702.39,68.76 702.84,70.00C706.39,79.69 706.48,114.59 703.00,131.50C702.69,133.01 702.25,135.94 702.02,138.00C701.79,140.06 701.33,142.76 701.01,144.00C700.69,145.24 700.23,147.49 699.98,149.00C698.91,155.73 698.65,156.82 696.49,163.69C696.22,164.56 696.22,165.48 696.50,166.00C696.82,166.59 696.67,167.64 696.03,169.31C694.19,174.10 693.00,177.99 693.00,179.18C693.00,179.65 692.55,180.92 692.00,182.00C691.45,183.08 691.00,184.55 691.00,185.27C691.00,186.00 690.34,188.65 689.54,191.17C688.73,193.69 687.37,198.11 686.51,201.00C685.64,203.89 684.70,206.93 684.41,207.75C684.13,208.57 683.45,210.60 682.91,212.25C681.12,217.69 680.71,218.90 679.45,222.62C679.14,223.52 678.26,225.94 677.49,228.00C676.72,230.06 675.39,233.61 674.54,235.88C673.69,238.14 672.31,241.86 671.46,244.12C667.61,254.42 667.04,255.91 666.00,258.50C665.40,260.01 664.46,262.49 663.93,264.00C663.39,265.51 662.31,268.21 661.53,270.00C658.66,276.62 657.08,280.32 656.01,283.00C655.40,284.51 653.60,288.56 652.01,292.00C650.41,295.44 648.38,299.94 647.50,302.00C642.55,313.50 634.66,330.21 626.01,347.50C618.46,362.59 601.75,394.54 598.01,401.00C595.81,404.81 592.93,409.98 588.60,417.88C587.28,420.28 585.17,423.94 583.91,426.00C582.66,428.06 581.06,430.88 580.36,432.25C578.86,435.21 559.24,467.66 551.50,480.00C550.03,482.34 548.14,485.38 547.29,486.75C546.44,488.13 545.13,490.16 544.37,491.25C543.61,492.35 539.84,498.09 535.99,504.00C532.14,509.91 527.25,517.21 525.12,520.22C522.99,523.23 520.91,526.28 520.50,527.00C519.58,528.62 511.07,540.54 506.24,547.00C498.70,557.06 496.00,561.08 496.00,562.24C496.00,563.07 495.21,564.11 493.43,565.60C492.02,566.78 489.04,570.00 486.82,572.75C484.60,575.50 482.35,578.20 481.84,578.75C481.33,579.30 480.22,580.76 479.38,582.00C478.54,583.24 477.48,584.59 477.01,585.00C476.55,585.41 474.73,587.55 472.98,589.75C471.22,591.95 469.66,593.86 469.51,594.00C469.36,594.14 468.23,595.49 467.00,597.00C465.77,598.51 464.65,599.86 464.50,600.00C464.35,600.14 463.23,601.49 462.00,603.00C460.77,604.51 459.42,606.09 459.00,606.50C458.58,606.91 457.22,608.49 455.99,610.00C454.76,611.51 452.74,613.76 451.50,615.00C450.26,616.24 448.24,618.48 447.00,619.99C445.76,621.50 443.18,624.35 441.25,626.34C439.32,628.33 435.84,632.02 433.50,634.54C427.94,640.55 423.97,644.51 419.52,648.50C417.52,650.29 414.28,653.33 412.31,655.25C410.34,657.17 407.50,659.76 405.99,660.99C404.48,662.23 403.14,663.35 403.00,663.50C402.86,663.65 401.51,664.77 400.00,666.00C398.49,667.24 396.94,668.54 396.55,668.91C395.22,670.18 386.24,676.84 385.00,677.48C384.31,677.84 382.18,679.23 380.25,680.57C371.74,686.51 361.96,692.02 355.89,694.30C353.63,695.14 342.83,698.76 340.21,699.54C338.15,700.16 313.96,700.12 313.00,699.50Z M599.95,619.27C598.30,617.59 598.24,617.38 597.91,612.39C597.73,609.57 597.32,605.79 597.00,604.00C596.68,602.21 596.24,597.71 596.01,594.00C595.79,590.29 595.45,586.55 595.26,585.69C594.51,582.36 597.90,579.20 600.88,580.46C602.62,581.19 605.13,583.50 608.00,586.99C609.24,588.49 611.34,590.84 612.68,592.21C614.01,593.58 616.00,596.02 617.09,597.63C619.29,600.87 620.13,601.43 621.30,600.46C621.86,599.99 621.99,599.37 621.76,598.28C621.58,597.44 621.23,595.06 620.99,593.00C620.38,587.83 619.68,583.47 619.24,582.10C618.82,580.79 620.27,578.92 622.68,577.66C624.01,576.97 624.18,577.00 625.35,578.09C627.76,580.34 627.86,580.79 629.01,595.00C629.97,606.89 630.33,609.81 631.12,611.93C632.08,614.55 631.57,616.18 629.43,617.29C626.55,618.78 624.20,617.84 620.94,613.89C619.74,612.44 617.95,610.46 616.97,609.50C616.00,608.54 613.32,605.39 611.03,602.50C606.58,596.89 605.88,596.25 604.67,596.71C604.07,596.94 603.97,597.47 604.21,599.13C604.98,604.23 605.51,607.99 605.95,611.25C606.20,613.17 606.56,615.32 606.74,616.01C607.01,617.02 606.71,617.62 605.20,619.13C602.89,621.44 602.09,621.46 599.95,619.27Z M641.10,614.28C639.07,611.98 639.02,611.71 637.99,599.00C637.53,593.24 636.81,586.33 636.22,581.86C635.60,577.24 636.18,576.59 641.50,575.93C643.29,575.71 646.21,575.28 648.00,574.98C653.28,574.07 660.95,573.83 661.82,574.55C663.51,575.96 664.09,577.88 663.28,579.44C662.31,581.32 661.57,581.61 656.50,582.08C645.83,583.05 645.31,583.17 644.59,584.76C643.65,586.81 643.90,588.21 645.44,589.70C646.83,591.03 647.04,591.07 650.82,590.81C652.98,590.67 655.95,590.40 657.42,590.22C659.88,589.92 660.20,590.01 661.54,591.29C663.41,593.08 663.44,594.90 661.62,596.61C660.13,598.01 658.31,598.41 651.67,598.82C646.66,599.13 645.87,599.76 646.10,603.27C646.34,607.07 647.37,607.51 654.50,606.93C665.62,606.02 665.54,606.02 666.85,607.95C668.31,610.11 668.32,610.04 666.27,612.05C664.68,613.62 664.21,613.78 660.40,614.11C658.12,614.31 654.34,614.70 652.00,614.99C641.99,616.24 642.86,616.29 641.10,614.28Z M684.30,609.67C683.03,608.38 682.00,607.04 682.00,606.68C682.00,606.32 681.58,605.06 681.06,603.89C680.54,602.71 679.44,600.17 678.62,598.25C675.17,590.18 673.81,587.08 672.44,584.12C671.65,582.39 670.99,580.70 670.99,580.37C670.98,580.03 670.54,579.19 670.00,578.50C668.33,576.37 668.71,573.70 670.84,572.57C673.81,571.01 676.15,572.79 678.68,578.52C679.46,580.30 680.76,583.16 681.55,584.88C682.35,586.61 683.00,588.41 683.00,588.89C683.00,590.25 684.91,595.13 685.61,595.58C687.17,596.57 687.85,595.49 688.16,591.50C688.40,588.49 688.63,587.12 690.05,580.25C690.33,578.88 690.68,576.62 690.83,575.25C691.38,569.98 695.63,568.25 699.09,571.88C701.16,574.04 702.00,575.51 702.00,576.96C702.00,577.52 702.65,579.39 703.45,581.12C704.88,584.20 706.34,587.72 707.50,590.84C708.81,594.36 711.00,593.25 711.00,589.06C711.00,587.48 711.44,585.03 712.00,583.50C712.61,581.82 713.00,579.50 713.01,577.51C713.02,573.42 713.95,570.68 715.94,568.91C719.48,565.74 722.28,566.85 721.81,571.24C721.34,575.75 720.64,579.72 719.99,581.50C719.65,582.46 719.18,584.71 718.96,586.50C718.74,588.29 718.32,590.93 718.03,592.38C717.74,593.82 717.26,596.18 716.97,597.62C716.68,599.07 716.29,601.44 716.10,602.90C715.68,606.10 713.25,609.00 710.99,609.00C709.36,609.00 705.72,605.34 705.20,603.15C705.01,602.38 704.33,600.70 703.69,599.41C703.05,598.13 702.20,596.21 701.81,595.16C701.42,594.11 700.60,591.90 699.99,590.25C698.70,586.76 697.99,585.85 696.88,586.27C695.78,586.69 695.40,587.72 694.93,591.50C694.31,596.61 693.09,603.60 692.23,607.09C691.82,608.74 688.66,612.00 687.47,612.00C686.99,612.00 685.56,610.95 684.30,609.67Z M735.75,603.92C733.20,602.60 731.00,600.55 731.00,599.49C731.00,598.50 734.39,595.00 735.35,595.00C735.73,595.00 736.92,595.45 738.00,596.00C741.90,597.99 749.43,597.07 750.25,594.51C751.20,591.50 747.12,589.04 739.75,588.19C736.18,587.77 735.51,587.50 733.45,585.64C726.88,579.71 727.53,570.98 734.90,566.11C737.16,564.62 743.39,563.66 745.94,564.42C746.94,564.71 748.38,565.08 749.15,565.24C749.92,565.40 751.36,566.27 752.34,567.17C754.35,569.01 754.24,569.79 751.60,572.62C750.07,574.26 748.65,574.35 746.00,573.00C742.34,571.13 739.54,571.71 736.79,574.90C735.84,576.00 735.85,576.02 737.04,577.30C738.60,578.97 740.60,580.00 742.28,580.00C743.02,580.00 745.00,580.44 746.68,580.98C748.37,581.52 750.37,582.09 751.14,582.24C752.78,582.58 756.26,585.59 757.28,587.56C758.41,589.74 758.22,595.60 756.94,598.14C754.28,603.44 751.18,605.01 743.39,604.98C738.69,604.96 737.42,604.78 735.75,603.92Z"/>
</svg>
